<svg width="786" height="151" viewBox="0 0 786 151" fill="none" xmlns="http://www.w3.org/2000/svg">
<g clip-path="url(#clip0_13_114)">
<path d="M70 83C70 91.8366 62.8366 99 54 99C45.1634 99 38 91.8366 38 83C38 74.1634 45.1634 67 54 67C62.8366 67 70 74.1634 70 83Z" fill="#00AACC"/>
<path d="M282.68 124.896C276.451 124.896 270.819 123.829 265.784 121.696C260.835 119.563 256.909 116.491 254.008 112.48C251.107 108.469 249.613 103.733 249.528 98.272H268.728C268.984 101.941 270.264 104.843 272.568 106.976C274.957 109.109 278.2 110.176 282.296 110.176C286.477 110.176 289.763 109.195 292.152 107.232C294.541 105.184 295.736 102.539 295.736 99.296C295.736 96.6507 294.925 94.4747 293.304 92.768C291.683 91.0613 289.635 89.7387 287.16 88.8C284.771 87.776 281.443 86.6667 277.176 85.472C271.373 83.7653 266.637 82.1013 262.968 80.48C259.384 78.7733 256.269 76.256 253.624 72.928C251.064 69.5147 249.784 64.992 249.784 59.36C249.784 54.0693 251.107 49.4613 253.752 45.536C256.397 41.6107 260.109 38.624 264.888 36.576C269.667 34.4427 275.128 33.376 281.272 33.376C290.488 33.376 297.955 35.6373 303.672 40.16C309.475 44.5973 312.675 50.8267 313.272 58.848H293.56C293.389 55.776 292.067 53.2587 289.592 51.296C287.203 49.248 284.003 48.224 279.992 48.224C276.493 48.224 273.677 49.12 271.544 50.912C269.496 52.704 268.472 55.3067 268.472 58.72C268.472 61.1093 269.24 63.1147 270.776 64.736C272.397 66.272 274.36 67.552 276.664 68.576C279.053 69.5147 282.381 70.624 286.648 71.904C292.451 73.6107 297.187 75.3173 300.856 77.024C304.525 78.7307 307.683 81.2907 310.328 84.704C312.973 88.1173 314.296 92.5973 314.296 98.144C314.296 102.923 313.059 107.36 310.584 111.456C308.109 115.552 304.483 118.837 299.704 121.312C294.925 123.701 289.251 124.896 282.68 124.896ZM371.816 124L347.752 93.792V124H329.832V29.28H347.752V83.168L371.56 53.088H394.856L363.624 88.672L395.112 124H371.816ZM413.67 44.64C410.513 44.64 407.867 43.6587 405.734 41.696C403.686 39.648 402.662 37.1307 402.662 34.144C402.662 31.1573 403.686 28.6827 405.734 26.72C407.867 24.672 410.513 23.648 413.67 23.648C416.827 23.648 419.43 24.672 421.478 26.72C423.611 28.6827 424.678 31.1573 424.678 34.144C424.678 37.1307 423.611 39.648 421.478 41.696C419.43 43.6587 416.827 44.64 413.67 44.64ZM422.502 53.088V124H404.582V53.088H422.502ZM458.127 29.28V124H440.207V29.28H458.127ZM493.752 29.28V124H475.832V29.28H493.752Z" fill="#E6E4E7"/>
<path d="M554.237 52.906V60.454H534.857V124H525.575V60.454H506.093V52.906H554.237ZM574.945 77.182C576.577 73.986 578.889 71.504 581.881 69.736C584.941 67.968 588.647 67.084 592.999 67.084V76.672H590.551C580.147 76.672 574.945 82.316 574.945 93.604V124H565.663V68.104H574.945V77.182ZM600.245 95.848C600.245 90.136 601.401 85.138 603.713 80.854C606.025 76.502 609.187 73.136 613.199 70.756C617.279 68.376 621.801 67.186 626.765 67.186C631.661 67.186 635.911 68.24 639.515 70.348C643.119 72.456 645.805 75.108 647.573 78.304V68.104H656.957V124H647.573V113.596C645.737 116.86 642.983 119.58 639.311 121.756C635.707 123.864 631.491 124.918 626.663 124.918C621.699 124.918 617.211 123.694 613.199 121.246C609.187 118.798 606.025 115.364 603.713 110.944C601.401 106.524 600.245 101.492 600.245 95.848ZM647.573 95.95C647.573 91.734 646.723 88.062 645.023 84.934C643.323 81.806 641.011 79.426 638.087 77.794C635.231 76.094 632.069 75.244 628.601 75.244C625.133 75.244 621.971 76.06 619.115 77.692C616.259 79.324 613.981 81.704 612.281 84.832C610.581 87.96 609.731 91.632 609.731 95.848C609.731 100.132 610.581 103.872 612.281 107.068C613.981 110.196 616.259 112.61 619.115 114.31C621.971 115.942 625.133 116.758 628.601 116.758C632.069 116.758 635.231 115.942 638.087 114.31C641.011 112.61 643.323 110.196 645.023 107.068C646.723 103.872 647.573 100.166 647.573 95.95ZM669.175 95.95C669.175 90.17 670.331 85.138 672.643 80.854C674.955 76.502 678.151 73.136 682.231 70.756C686.379 68.376 691.105 67.186 696.409 67.186C703.277 67.186 708.921 68.852 713.341 72.184C717.829 75.516 720.787 80.14 722.215 86.056H712.219C711.267 82.656 709.397 79.97 706.609 77.998C703.889 76.026 700.489 75.04 696.409 75.04C691.105 75.04 686.821 76.876 683.557 80.548C680.293 84.152 678.661 89.286 678.661 95.95C678.661 102.682 680.293 107.884 683.557 111.556C686.821 115.228 691.105 117.064 696.409 117.064C700.489 117.064 703.889 116.112 706.609 114.208C709.329 112.304 711.199 109.584 712.219 106.048H722.215C720.719 111.76 717.727 116.35 713.239 119.818C708.751 123.218 703.141 124.918 696.409 124.918C691.105 124.918 686.379 123.728 682.231 121.348C678.151 118.968 674.955 115.602 672.643 111.25C670.331 106.898 669.175 101.798 669.175 95.95ZM765.812 124L743.882 99.316V124H734.6V48.52H743.882V92.89L765.404 68.104H778.358L752.042 95.95L778.46 124H765.812Z" fill="#FFE8E5"/>
<circle cx="201" cy="133" r="9" fill="#F5A30A"/>
<path d="M30 115C30 119.971 25.9706 124 21 124C16.0294 124 12 119.971 12 115C12 110.029 16.0294 106 21 106C25.9706 106 30 110.029 30 115Z" fill="#00AACC"/>
<path d="M43 19C43 25.0751 38.0751 30 32 30C25.9249 30 21 25.0751 21 19C21 12.9249 25.9249 8 32 8C38.0751 8 43 12.9249 43 19Z" fill="#00AACC"/>
<path d="M90 15C90 19.9706 85.9706 24 81 24C76.0294 24 72 19.9706 72 15C72 10.0294 76.0294 6 81 6C85.9706 6 90 10.0294 90 15Z" fill="#28A46A"/>
<path d="M96 105C96 111.627 90.6274 117 84 117C77.3726 117 72 111.627 72 105C72 98.3726 77.3726 93 84 93C90.6274 93 96 98.3726 96 105Z" fill="#28A46A"/>
<path d="M109 53C109 61.8366 101.837 69 93 69C84.1634 69 77 61.8366 77 53C77 44.1634 84.1634 37 93 37C101.837 37 109 44.1634 109 53Z" fill="#28A46A"/>
<circle cx="138" cy="69" r="16" fill="#CC1100"/>
<circle cx="138" cy="24" r="9" fill="#CC1100"/>
<circle cx="134" cy="117" r="12" fill="#CC1100"/>
<circle cx="177" cy="89" r="16" fill="#F5A30A"/>
<circle cx="189" cy="53" r="12" fill="#F5A30A"/>
<rect x="31.9724" y="25.8575" width="4" height="50" transform="rotate(-20 31.9724 25.8575)" fill="#00AACC"/>
<rect x="47.3826" y="87.4812" width="4" height="30" transform="rotate(47 47.3826 87.4812)" fill="#00AACC"/>
<rect x="81.3073" y="22.1884" width="4" height="20" transform="rotate(-18 81.3073 22.1884)" fill="#28A46A"/>
<rect x="91.0982" y="64.0746" width="4" height="35" transform="rotate(12 91.0982 64.0746)" fill="#28A46A"/>
<rect x="136" y="31.0698" width="4" height="25" transform="rotate(-1 136 31.0698)" fill="#CC1100"/>
<rect x="135.179" y="82" width="4" height="25" transform="rotate(5 135.179 82)" fill="#CC1100"/>
<rect x="179.163" y="101.522" width="4" height="30" transform="rotate(-32 179.163 101.522)" fill="#F5A30A"/>
<rect x="186" y="58" width="4" height="20" transform="rotate(30 186 58)" fill="#F5A30A"/>
</g>
<defs>
<clipPath id="clip0_13_114">
<rect width="786" height="151" fill="white"/>
</clipPath>
</defs>
</svg>
