<svg width="319" height="222" viewBox="0 0 319 222" fill="none" xmlns="http://www.w3.org/2000/svg">
<g clip-path="url(#clip0_12_65)">
<path d="M123 85C123 93.8366 115.837 101 107 101C98.1634 101 91 93.8366 91 85C91 76.1634 98.1634 69 107 69C115.837 69 123 76.1634 123 85Z" fill="#007F99"/>
<path d="M23.25 218.525C19.6 218.525 16.3 217.9 13.35 216.65C10.45 215.4 8.15 213.6 6.45 211.25C4.75 208.9 3.875 206.125 3.825 202.925H15.075C15.225 205.075 15.975 206.775 17.325 208.025C18.725 209.275 20.625 209.9 23.025 209.9C25.475 209.9 27.4 209.325 28.8 208.175C30.2 206.975 30.9 205.425 30.9 203.525C30.9 201.975 30.425 200.7 29.475 199.7C28.525 198.7 27.325 197.925 25.875 197.375C24.475 196.775 22.525 196.125 20.025 195.425C16.625 194.425 13.85 193.45 11.7 192.5C9.6 191.5 7.775 190.025 6.225 188.075C4.725 186.075 3.975 183.425 3.975 180.125C3.975 177.025 4.75 174.325 6.3 172.025C7.85 169.725 10.025 167.975 12.825 166.775C15.625 165.525 18.825 164.9 22.425 164.9C27.825 164.9 32.2 166.225 35.55 168.875C38.95 171.475 40.825 175.125 41.175 179.825H29.625C29.525 178.025 28.75 176.55 27.3 175.4C25.9 174.2 24.025 173.6 21.675 173.6C19.625 173.6 17.975 174.125 16.725 175.175C15.525 176.225 14.925 177.75 14.925 179.75C14.925 181.15 15.375 182.325 16.275 183.275C17.225 184.175 18.375 184.925 19.725 185.525C21.125 186.075 23.075 186.725 25.575 187.475C28.975 188.475 31.75 189.475 33.9 190.475C36.05 191.475 37.9 192.975 39.45 194.975C41 196.975 41.775 199.6 41.775 202.85C41.775 205.65 41.05 208.25 39.6 210.65C38.15 213.05 36.025 214.975 33.225 216.425C30.425 217.825 27.1 218.525 23.25 218.525ZM75.4781 218L61.3781 200.3V218H50.8781V162.5H61.3781V194.075L75.3281 176.45H88.9781L70.6781 197.3L89.1281 218H75.4781ZM100.002 171.5C98.152 171.5 96.602 170.925 95.352 169.775C94.152 168.575 93.552 167.1 93.552 165.35C93.552 163.6 94.152 162.15 95.352 161C96.602 159.8 98.152 159.2 100.002 159.2C101.852 159.2 103.377 159.8 104.577 161C105.827 162.15 106.452 163.6 106.452 165.35C106.452 167.1 105.827 168.575 104.577 169.775C103.377 170.925 101.852 171.5 100.002 171.5ZM105.177 176.45V218H94.677V176.45H105.177ZM126.051 162.5V218H115.551V162.5H126.051ZM146.925 162.5V218H136.425V162.5H146.925Z" fill="#343135"/>
<path d="M182.484 176.18V180.62H171.084V218H165.624V180.62H154.164V176.18H182.484ZM194.665 190.46C195.625 188.58 196.985 187.12 198.745 186.08C200.545 185.04 202.725 184.52 205.285 184.52V190.16H203.845C197.725 190.16 194.665 193.48 194.665 200.12V218H189.205V185.12H194.665V190.46ZM209.548 201.44C209.548 198.08 210.228 195.14 211.588 192.62C212.948 190.06 214.808 188.08 217.168 186.68C219.568 185.28 222.228 184.58 225.148 184.58C228.028 184.58 230.528 185.2 232.648 186.44C234.768 187.68 236.348 189.24 237.388 191.12V185.12H242.908V218H237.388V211.88C236.308 213.8 234.688 215.4 232.528 216.68C230.408 217.92 227.928 218.54 225.088 218.54C222.168 218.54 219.528 217.82 217.168 216.38C214.808 214.94 212.948 212.92 211.588 210.32C210.228 207.72 209.548 204.76 209.548 201.44ZM237.388 201.5C237.388 199.02 236.888 196.86 235.888 195.02C234.888 193.18 233.528 191.78 231.808 190.82C230.128 189.82 228.268 189.32 226.228 189.32C224.188 189.32 222.328 189.8 220.648 190.76C218.968 191.72 217.628 193.12 216.628 194.96C215.628 196.8 215.128 198.96 215.128 201.44C215.128 203.96 215.628 206.16 216.628 208.04C217.628 209.88 218.968 211.3 220.648 212.3C222.328 213.26 224.188 213.74 226.228 213.74C228.268 213.74 230.128 213.26 231.808 212.3C233.528 211.3 234.888 209.88 235.888 208.04C236.888 206.16 237.388 203.98 237.388 201.5ZM250.095 201.5C250.095 198.1 250.775 195.14 252.135 192.62C253.495 190.06 255.375 188.08 257.775 186.68C260.215 185.28 262.995 184.58 266.115 184.58C270.155 184.58 273.475 185.56 276.075 187.52C278.715 189.48 280.455 192.2 281.295 195.68H275.415C274.855 193.68 273.755 192.1 272.115 190.94C270.515 189.78 268.515 189.2 266.115 189.2C262.995 189.2 260.475 190.28 258.555 192.44C256.635 194.56 255.675 197.58 255.675 201.5C255.675 205.46 256.635 208.52 258.555 210.68C260.475 212.84 262.995 213.92 266.115 213.92C268.515 213.92 270.515 213.36 272.115 212.24C273.715 211.12 274.815 209.52 275.415 207.44H281.295C280.415 210.8 278.655 213.5 276.015 215.54C273.375 217.54 270.075 218.54 266.115 218.54C262.995 218.54 260.215 217.84 257.775 216.44C255.375 215.04 253.495 213.06 252.135 210.5C250.775 207.94 250.095 204.94 250.095 201.5ZM306.94 218L294.04 203.48V218H288.58V173.6H294.04V199.7L306.7 185.12H314.32L298.84 201.5L314.38 218H306.94Z" fill="#330400"/>
<path d="M83 117C83 121.971 78.9706 126 74 126C69.0294 126 65 121.971 65 117C65 112.029 69.0294 108 74 108C78.9706 108 83 112.029 83 117Z" fill="#007F99"/>
<path d="M96 21C96 27.0751 91.0751 32 85 32C78.9249 32 74 27.0751 74 21C74 14.9249 78.9249 10 85 10C91.0751 10 96 14.9249 96 21Z" fill="#007F99"/>
<path d="M143 17C143 21.9706 138.971 26 134 26C129.029 26 125 21.9706 125 17C125 12.0294 129.029 8 134 8C138.971 8 143 12.0294 143 17Z" fill="#1E7B50"/>
<path d="M149 107C149 113.627 143.627 119 137 119C130.373 119 125 113.627 125 107C125 100.373 130.373 95 137 95C143.627 95 149 100.373 149 107Z" fill="#1E7B50"/>
<path d="M162 55C162 63.8366 154.837 71 146 71C137.163 71 130 63.8366 130 55C130 46.1634 137.163 39 146 39C154.837 39 162 46.1634 162 55Z" fill="#1E7B50"/>
<circle cx="191" cy="71" r="16" fill="#990D00"/>
<circle cx="191" cy="26" r="9" fill="#990D00"/>
<circle cx="187" cy="119" r="12" fill="#990D00"/>
<circle cx="230" cy="91" r="16" fill="#C48208"/>
<circle cx="254" cy="135" r="9" fill="#C48208"/>
<circle cx="242" cy="55" r="12" fill="#C48208"/>
<rect x="84.9724" y="27.8575" width="4" height="50" transform="rotate(-20 84.9724 27.8575)" fill="#007F99"/>
<rect x="100.383" y="89.4812" width="4" height="30" transform="rotate(47 100.383 89.4812)" fill="#007F99"/>
<rect x="134.307" y="24.1884" width="4" height="20" transform="rotate(-18 134.307 24.1884)" fill="#1E7B50"/>
<rect x="144.098" y="66.0746" width="4" height="35" transform="rotate(12 144.098 66.0746)" fill="#1E7B50"/>
<rect x="189" y="33.0698" width="4" height="25" transform="rotate(-1 189 33.0698)" fill="#990D00"/>
<rect x="188.179" y="84" width="4" height="25" transform="rotate(5 188.179 84)" fill="#990D00"/>
<rect x="232.163" y="103.522" width="4" height="30" transform="rotate(-32 232.163 103.522)" fill="#C48208"/>
<rect x="239" y="60" width="4" height="20" transform="rotate(30 239 60)" fill="#C48208"/>
</g>
<defs>
<clipPath id="clip0_12_65">
<rect width="319" height="222" fill="white"/>
</clipPath>
</defs>
</svg>
